<svg xmlns="http://www.w3.org/2000/svg" xmlns:xlink="http://www.w3.org/1999/xlink" width="973.735" height="774.28" viewBox="0 0 973.735 774.28">
  <defs>
    <clipPath id="clip-path">
      <rect x="267" y="126" width="908.296" height="774.28" fill="none"/>
    </clipPath>
    <linearGradient id="linear-gradient" x1="0.5" y1="1" x2="0.5" gradientUnits="objectBoundingBox">
      <stop offset="0" stop-color="#0435fb"/>
      <stop offset="1" stop-color="#fff"/>
    </linearGradient>
  </defs>
  <g id="Group_7942" data-name="Group 7942" transform="translate(1.435 -1718.875)">
    <g id="Scroll_Group_7" data-name="Scroll Group 7" transform="translate(-267.09 1592.875)" clip-path="url(#clip-path)" style="isolation: isolate">
      <ellipse id="Ellipse_780" data-name="Ellipse 780" cx="548" cy="368" rx="548" ry="368" transform="translate(215.186) rotate(17)" opacity="0.04" fill="url(#linear-gradient)"/>
    </g>
    <path id="Path_9813" data-name="Path 9813" d="M-6727.188-10357.511c35.272,23.472,123.075,62.687,319.188,68.441,283.4,8.316,645.812,111.329,650.884,178.263,4.265,56.291-71.937,47.424-211.535,23.178s-668.6,31.162-758.25-40.447" transform="translate(6727 12428)" fill="none" stroke="#fff" strokeWidth="4.5"/>
    <path id="Path_9814" data-name="Path 9814" d="M-6727.151-10324.691c66.029,7.947,233.846,32.746,305.484,86.006,90.224,67.078,469.575,11.922,488.888,57.807s136.173-39.86,122.891,30.4-129.14,72.93-131.078,74.526-186.585,6.188-441.584-22.113c-176.2-19.556-287.416-15.763-344.683-12.337" transform="translate(6727 12428)" fill="none" stroke="#fff" strokeWidth="1.5"/>
    <path id="Path_10338" data-name="Path 10338" d="M-19184.861-20704.781s209.156,52.857,326.455,0,240.7-39.947,326.523-19.139c70.809,17.168,111.148,44.449,123.33,53.646,12.439,6.5,48.752,61.018,79.76,50.281.7-.24,51.658-6.762,100.381,47.543,2.764,3.443,25.691,41.217-23.734,64.742-2.277,1.084-34.9,19.045-120.191,8.926-1.965-.232-252.74-36.426-439.033,3.24-1.467.313-126.027,36.406-250.324-7.551-1.236-.436-59.242-17.711-123.166-61.047" transform="translate(19185 22848)" fill="none" stroke="#0435fb" strokeWidth="1" opacity="0.151"/>
  </g>
</svg>
