<svg xmlns="http://www.w3.org/2000/svg" xmlns:xlink="http://www.w3.org/1999/xlink" version="1.2" overflow="visible" preserveAspectRatio="none" viewBox="0 0 356 386" width="356" height="386"><g transform="translate(0, 0)"><defs><path id="path-164177761470399353" d="M330.5209839621278 98.13540441118892 C364.8951662941893 117.54071036820314 395.3030968187049 155.24244765611812 398.3879593356854 197.37968344849267 C401.03212720738196 239.5169192408676 376.79392171682656 285.535216224645 354.75918945268404 320.4647669472721 C332.72445718854243 355.3943176698984 312.8931981508146 379.23512213137457 290.8584658866728 402.5214892797916 C268.82373362253094 426.3622937412668 244.5855281319749 449.64866088968466 214.17759760745912 460.1829698377785 C184.21036172822633 470.71727878587205 147.63270616975075 468.49952953364186 125.5979739056087 444.6587250721662 C104.00393628674976 420.8179206106913 96.51212731694153 375.90849825302786 80.20642544147665 330.4446385823085 C63.90072356601143 284.9807789115881 38.34043413960688 238.96248192780988 43.18807523771815 199.5974327007231 C47.595021690546375 160.7868207866933 82.40989866789077 129.18389394241225 116.78408099995212 110.33302529845514 C151.15826333201326 91.48215665449808 185.9731403093578 84.82890889780722 222.11010122254953 81.50228501946177 C258.24706213574314 78.73009845417401 296.5874962753498 78.73009845417401 330.5209839621278 98.13540441118892 Z" vector-effect="non-scaling-stroke"/></defs><g transform="translate(-42.58662665417325, -80.1900767958786)"><path d="M330.5209839621278 98.13540441118892 C364.8951662941893 117.54071036820314 395.3030968187049 155.24244765611812 398.3879593356854 197.37968344849267 C401.03212720738196 239.5169192408676 376.79392171682656 285.535216224645 354.75918945268404 320.4647669472721 C332.72445718854243 355.3943176698984 312.8931981508146 379.23512213137457 290.8584658866728 402.5214892797916 C268.82373362253094 426.3622937412668 244.5855281319749 449.64866088968466 214.17759760745912 460.1829698377785 C184.21036172822633 470.71727878587205 147.63270616975075 468.49952953364186 125.5979739056087 444.6587250721662 C104.00393628674976 420.8179206106913 96.51212731694153 375.90849825302786 80.20642544147665 330.4446385823085 C63.90072356601143 284.9807789115881 38.34043413960688 238.96248192780988 43.18807523771815 199.5974327007231 C47.595021690546375 160.7868207866933 82.40989866789077 129.18389394241225 116.78408099995212 110.33302529845514 C151.15826333201326 91.48215665449808 185.9731403093578 84.82890889780722 222.11010122254953 81.50228501946177 C258.24706213574314 78.73009845417401 296.5874962753498 78.73009845417401 330.5209839621278 98.13540441118892 Z" style="stroke-width: 0; stroke-linecap: butt; stroke-linejoin: miter; fill: rgb(104, 117, 218);" vector-effect="non-scaling-stroke"/></g></g></svg>